<svg width="1200" height="340" preserveAspectRatio="xMidYMid" version="1.1" viewBox="0 0 1200 340" xml:space="preserve" xmlns="http://www.w3.org/2000/svg"><rect width="1200" height="340" style="fill:#f2f2f2"/><g transform="matrix(1.1201 0 0 1.1201 -90.43 -179.52)" fill-rule="evenodd"><g id="layer1" transform="matrix(.2457 0 0 .2457 47.955 164.63)"><g transform="matrix(1.0861,0,0,1.0861,-65.674,-2.7256)"><path d="m582.91 2.5096s-3.5892 33.91-0.78453 58.607c1.957 17.234-6.5478 48.969-8.8965 65.595-2.8308 20.039-13.312 48.131-19.948 59.814-17.347 34.424-31.085 51.494-41.941 64.902-10.316 16.68-29.649 35.524-40.253 48.068l-30.742 29.634c0.67441 1.0531 15.935-35.898 21.709-53.502 3.8512-11.742 8.3375-36.994 7.3729-53.056-2.289-38.118-28.42-59.408-28.42-59.408 0.021 42.475-17.754 99.85-36.468 129.37-16.215 26.749-44.711 59.046-63.945 77.42-17.98 17.176-47.302 48.638-69.27 80.129-10.311 14.781-38.509 61.115-44.577 73.362-2.8637 5.7801-16.099 29.662-24.24 55.143-7.6844 24.052-12.005 49.134-13.381 56.415-1.1237 5.9444-2.0901 20.316-2.6473 34.075-0.89149 22.014 1.0973 46.576 4.7035 58.629 2.7996 9.357 7.345 19.897 11.651 29.315 9.5092 20.801 25.506 42.728 32.506 49.857 6.2337 6.3486 25.602 24.833 45.033 40.546 16.993 13.742 44.132 31.181 58.246 39.212 15.967 9.0848 42.849 20.988 57.231 26.579 10.499 5.0726 40.487 12.615 40.487 12.615s352.63 5.0299 362.34 0c65.641-34.01 112.16-62.986 143.7-89.867 23.103-19.69 55.022-45.584 75.261-83.728 11.928-22.48 26.595-60.53 24.706-96.468-2.0875-39.724-20.304-62.68-25.871-73.916-6.0677-12.247-47.945-58.071-62.279-68.995-33.227-25.321-64.694-58.238-93.455-87.587-32.919-33.592-47.967-53.509-62.343-90.799-13.58-29.406-13.077-56.234-13.056-98.71l-16.962 26.023c-11.905 18.264-23.2 41.57-31.976 58.865-10.447 26.904-14.404 47.516-20.181 65.507-8.9175-13.649-18.774-53.724-23.356-77.239-5.5943-22.882-8.4983-47.181-13.636-73.819-2.2425-16.814-8.9764-40.573-15.752-60.714-7.6238-22.663-13.701-41.966-24.178-63.097-15.823-27.057-19.472-64.38-56.384-108.78z" style="fill:#06f"/><path d="m668.8 863.66s62.161 5.9099 108.91 14.474c21.482 3.9354 44.214 11.952 49.976 9.0824 21.73-10.823 71.577-47.144 101.86-73.014 41.584-31.214 71.606-64.973 79.15-94.402 10.317-40.251 3.097-96.422-10.357-116.59-25.604-38.377-47.125-57.417-69.325-79.223-21.802-21.416-70.94-67.116-86.401-80.439-55.393-47.733-69.275-95.595-73.629-121.24 0 0-25.742 41.814-29.85 73.846-2.9838 23.266-0.93223 50.579 4.6441 79.676 3.7016 19.314 4.2639 37.387 2.3102 53.218-1.8067 14.641-26.604 69.259-32.715 80.07-10.346 18.303-49.376 83.829-58.182 110.11-22.524 67.225-14.71 120.24 13.608 144.43z" style="fill:#0cf"/><path d="m622.29 127.99c-1.1008 3.1953-1.7816 15.313-4.5664 26.045-2.5002 9.635-5.543 20.768-9.2051 30.953-11.315 31.472-35.281 57.92-35.281 57.92-17.967 20.937-66.957 65.298-119.01 101.66-18.755 13.104-43.31 36.781-63.908 54.314-16.316 13.888-31.425 29.051-44.15 42.863-23.376 25.373-38.709 46.191-38.709 46.191s-20.733 28.067-27.541 45.002c-4.9456 12.303-15.959 28.209-24.922 53.082-8.766 24.325-15.812 42.95-22.219 86.006-3.2966 22.156-1.5688 43.008 3.5449 62.984 7.571 29.576 20.514 56.267 39.922 77.898 23.126 25.775 52.983 42.977 76.725 57.166 29.055 17.364 55.426 24.131 55.426 24.131 16.247-4.4266 42.163-12.634 65.229-17.678 15.127-3.3077 35.056-6.3815 58.381-7.993 24.056-1.776 51.683-4.1617 79.835-4.2776 31.861-0.7097 65.062 0.6566 80.231 2.1043 14.316 1.2592 30.591 3.1485 34.665 3.3345 14.216 1.0237 41.324-7.7936 69.561-18.414 15.4-5.7924 42.88-19.862 59.631-34.631 23.765-20.952 59.972-59.902 51.797-54.934-3.162 1.9216-36.799 16.907-52.684 25.125-37.078 19.182-87.738 35.832-87.738 35.832s15.597-6.9595 49.535-32.957c12.894-9.8769 27.207-23.063 44.76-40.197 19.618-19.15 30.621-38.719 32.418-60.68 4.043-49.407-23.758-96.137-23.758-96.137s-20.684-31.307-53.043-65.891c-18.381-19.645-51.712-48.633-72.416-65.363-14.395-11.632-25.48-23.371-37.527-37.852-8.428-10.131-16-22.308-23.671-34.333 0 0-11.074-23.382-13.753-31.607-1.4891-7.0542-6.6627-24.339-7.2112-32.655-0.54777-8.3056-2.2026-17.62-3.6919-32.858-1.4898-15.243-2.0529-39.562-5.9938-56.416-4.5317-19.38-9.5606-32.604-14.205-49.33-5.9464-21.415-16.092-59.482-16.461-58.412z" style="fill:#afe"/><path d="m360.07 874.63c-38.26-18.467-66.29-39.411-91.601-70.548-7.5015-12.718-15.008-19.483-23.739-42.999-9.2057-24.794-14.726-63.585-12.264-66.583 3.2416-3.9484 32.328 9.5657 51.437 21.048 14.208 8.537 25.439 15.696 37.437 23.394 6.1326 3.9345 22.205 14.19 36.505 26.768 5.8402 5.137 11.727 10.469 16.068 15.684 6.9221 8.3155 11.095 16.055 13.789 20.129 1.8086 2.7344 6.3792 11.669 9.3623 18.278 3.6289 8.0397 5.6982 12.695 7.5641 17 2.0552 3.7613 6.1253 16.372 11.207 21.227 4.875 4.6574 0.81999-11.729 0.33547-17.635-0.0839-1.0223-1.1873-6.7987-2.4364-12.866-1.1169-5.4248-1.9463-12.134-2.6712-14.832-0.62682-2.3334-2.8826-11.498-4.3013-17.507-1.034-4.3796-2.1201-8.6769-3.0009-11.355-2.1224-6.4547-7.413-19.771-8.3258-21.46-2.9249-5.4133-9.5622-14.874-13.842-20.041-3.242-3.9144-6.0237-7.727-10.166-11.914-3.4083-3.4452-10.201-11.033-12.214-12.878-3.0824-2.826-15.031-13.906-22.541-20.069-10.775-8.8434-21.276-18.678-27.075-23.769 0 0 13.14 0.43902 19.267 1.0222 9.333 0.88837 18.7 2.722 21.478 3.1631 13.434 2.1326 26.441 6.0306 29.856 6.8216 4.361 1.0102 14.958 5.3744 22.488 8.2692 6.7276 2.5864 16.595 8.0591 20.293 9.8745 7.7777 3.8174 15.741 8.5292 21.752 11.987 7.9043 4.5474 17.399 10.48 23.262 15.585 3.4068 2.9664 8.237 8.2968 13.074 12.736 5.7971 5.321 11.868 11.277 16.407 16.854 3.2969 4.0509 6.128 10.048 9.096 14.449 4.0923 6.0682 7.4542 16.366 9.285 20.306 18.983 40.857 20.525 43.538 24.249 33.819 2.2816-5.9546 10.232-17.541 17.448-32.063 7.7726-15.643 16.719-30.712 24.839-47.302 9.9932-20.418 15.883-34.278 21.975-46.912 8.0286-16.65 25.738-44.143 27.848-39.571 5.418 11.742 22.813 60.078 27.766 78.01 4.4643 16.162 7.6773 24.017 11.396 32.606 3.2835 7.5828 7.0628 16.274 10.996 24.088 9.4353 18.743 22.554 29.381 22.554 29.381 2.2715 1.3405 2.1637-9.7621 5.5633-26.084 2.5762-12.369 5.9148-20.136 8.5806-31.945 1.8316-8.114 4.9884-22.84 9.1912-32.593 4.099-9.5126 8.4223-18.763 11.484-25.653 4.2096-9.8853 8.744-17.422 12.678-24.085 2.6682-4.5187 4.9027-9.8564 8.6754-15.887 3.2572-5.2069 6.9784-12.208 10.566-18.291 3.4678-5.881 9.204-14.926 14.329-21.143 4.3722-5.3034 19.945-21.899 23.447-25.041 8.624-7.737 16.976-14.982 19.737-15.698 1.47-0.38108-0.0729 10.538 0.43903 19.727 0.41909 7.5218-1.6646 17.785-1.8721 23.13-0.63282 16.303-7.3195 47.032-10.516 65.128-2.2083 12.501-10.787 50.018-12.545 66.001-1.3142 11.949-3.4561 31.62-4.0227 46.753-0.23969 6.4023-1.2094 15.771-0.28054 22.718 1.0955 8.1931 3.8479 14.143 6.5564 18.158 1.5779 2.339 15.215-9.1242 28.23-15.576 14.597-7.2368 29.715-14.599 37.258-18.88 12.569-7.1329 69.396-30.842 65.902-25.218-5.208 8.3823-12.462 22.812-18.839 30.721-7.3895 9.1645-16.325 18.977-23.337 24.984-4.6362 3.7695-22.509 18.149-35.471 26.536-11.434 7.398-29.9 19.624-33.588 19.624h-418.7c-18.563-6.1144-29.772-8.9816-48.325-19.58z" style="fill:#005"/><path d="m195.81 866.11a421.12 316.37 0 0 0 404.19 228.77 421.12 316.37 0 0 0 404.19-228.77z" style="fill:#0cf;stroke-linejoin:round;stroke-width:25;stroke:#06f"/><g transform="matrix(.65823 0 0 .65823 495.5 876)"><path d="m81.145 188.74c-8.0454 0-14.815 6.6491-14.815 14.551 0 7.9017 6.7701 14.553 14.815 14.553h118.54c8.0454 0 14.815-6.6511 14.815-14.553 0-7.9017-6.7701-14.551-14.815-14.551z" style="color-rendering:auto;color:#000000;dominant-baseline:auto;fill:#00002b;font-feature-settings:normal;font-variant-alternates:normal;font-variant-caps:normal;font-variant-east-asian:normal;font-variant-ligatures:normal;font-variant-numeric:normal;font-variant-position:normal;font-variation-settings:normal;image-rendering:auto;inline-size:0;isolation:auto;mix-blend-mode:normal;opacity:.99;shape-margin:0;shape-padding:0;shape-rendering:auto;solid-color:#000000;stop-color:#000000;text-decoration-color:#000000;text-decoration-line:none;text-decoration-style:solid;text-indent:0;text-orientation:mixed;text-transform:none;white-space:normal"/><path d="m117.98 240.87c-8.3489 0-15.376 6.6511-15.376 14.553 0 7.9017 7.0275 14.551 15.376 14.551h117.42c8.3489 0 15.376-6.6491 15.376-14.551 0-7.9017-7.0275-14.553-15.376-14.553z" style="color-rendering:auto;color:#000000;dominant-baseline:auto;fill:#002b00;font-feature-settings:normal;font-variant-alternates:normal;font-variant-caps:normal;font-variant-east-asian:normal;font-variant-ligatures:normal;font-variant-numeric:normal;font-variant-position:normal;font-variation-settings:normal;image-rendering:auto;inline-size:0;isolation:auto;mix-blend-mode:normal;opacity:.99;shape-margin:0;shape-padding:0;shape-rendering:auto;solid-color:#000000;stop-color:#000000;text-decoration-color:#000000;text-decoration-line:none;text-decoration-style:solid;text-indent:0;text-orientation:mixed;text-transform:none;white-space:normal"/><path d="m210.21 51.287c-6.0852-5.1999-15.343-4.0676-20.327 1.7728l-120.08 140.74c-4.9831 5.8405-4.6485 15.167 1.4366 20.367 6.0852 5.1999 15.344 4.0704 20.327-1.7701l120.08-140.74c4.9831-5.8405 4.6483-15.17-1.4368-20.37z" style="color-rendering:auto;color:#000000;dominant-baseline:auto;fill:#000080;font-feature-settings:normal;font-variant-alternates:normal;font-variant-caps:normal;font-variant-east-asian:normal;font-variant-ligatures:normal;font-variant-numeric:normal;font-variant-position:normal;font-variation-settings:normal;image-rendering:auto;inline-size:0;isolation:auto;mix-blend-mode:normal;opacity:.99;shape-margin:0;shape-padding:0;shape-rendering:auto;solid-color:#000000;stop-color:#000000;text-decoration-color:#000000;text-decoration-line:none;text-decoration-style:solid;text-indent:0;text-orientation:mixed;text-transform:none;white-space:normal"/><path d="m90.003 47.53c-7.9017 0-14.553 6.6511-14.553 14.553 0 7.9017 6.6511 14.551 14.553 14.551h110.64c7.9017 0 14.551-6.6491 14.551-14.551s-6.6491-14.553-14.551-14.553z" style="color-rendering:auto;color:#000000;dominant-baseline:auto;fill:#00f;font-feature-settings:normal;font-variant-alternates:normal;font-variant-caps:normal;font-variant-east-asian:normal;font-variant-ligatures:normal;font-variant-numeric:normal;font-variant-position:normal;font-variation-settings:normal;image-rendering:auto;inline-size:0;isolation:auto;mix-blend-mode:normal;opacity:.99;shape-margin:0;shape-padding:0;shape-rendering:auto;solid-color:#000000;stop-color:#000000;text-decoration-color:#000000;text-decoration-line:none;text-decoration-style:solid;text-indent:0;text-orientation:mixed;text-transform:none;white-space:normal"/><path d="m246.28 103.71c-6.0852-5.1999-15.343-4.0676-20.327 1.7728l-120.08 140.74c-4.9831 5.8405-4.6486 15.167 1.4366 20.367 6.0852 5.1999 15.344 4.0704 20.327-1.7701l120.08-140.74c4.9831-5.8405 4.6483-15.17-1.4368-20.37z" style="color-rendering:auto;color:#000000;dominant-baseline:auto;fill:#0f0;font-feature-settings:normal;font-variant-alternates:normal;font-variant-caps:normal;font-variant-east-asian:normal;font-variant-ligatures:normal;font-variant-numeric:normal;font-variant-position:normal;font-variation-settings:normal;image-rendering:auto;inline-size:0;isolation:auto;mix-blend-mode:normal;opacity:.99;shape-margin:0;shape-padding:0;shape-rendering:auto;solid-color:#000000;stop-color:#000000;text-decoration-color:#000000;text-decoration-line:none;text-decoration-style:solid;text-indent:0;text-orientation:mixed;text-transform:none;white-space:normal"/></g></g><text style="font-family:FreeSerif;font-size:10.583px;line-height:1.25;shape-inside:url(#rect1483);white-space:pre" xml:space="preserve"/><text style="font-family:FreeSerif;font-size:10.583px;line-height:1.25;shape-inside:url(#rect1489);white-space:pre" xml:space="preserve"/></g><path transform="rotate(-90)" d="m-400.83 396.96h-24.412v-1.3643l21.342-31.672h-20.124v-1.7542h22.609v1.3643l-21.293 31.672h21.878zm35.375-17.444q0 5.2624-1.7054 9.3067-1.7054 4.0443-5.165 6.3344-3.4108 2.2901-8.5758 2.2901-5.1163 0-8.5758-2.2901-3.4108-2.2901-5.1163-6.3344-1.7054-4.0443-1.7054-9.3554 0-5.2624 1.7541-9.258 1.8029-4.0443 5.3112-6.2857 3.5083-2.2901 8.5758-2.2901 7.3089 0 11.256 4.7752 3.9468 4.7264 3.9468 13.107zm-28.895-0.0487q0 4.7752 1.4618 8.4296 1.4618 3.6545 4.4341 5.7497 3.021 2.0465 7.6013 2.0465 4.5803 0 7.5526-2.0465 2.9723-2.0465 4.3854-5.6522 1.4618-3.6545 1.4618-8.4784 0-7.65-3.4108-11.889-3.3621-4.2392-9.794-4.2392-4.629 0-7.65 2.0465-3.021 2.0465-4.5316 5.701-1.5105 3.6057-1.5105 8.3322zm45.072-17.298q6.0908 0 9.258 2.0465 3.1672 1.9978 3.1672 7.309 0 3.9468-2.0952 6.2857-2.0952 2.2901-5.6035 3.2647l9.5504 15.885h-2.2901l-9.1605-15.349h-9.0631v15.349h-1.9003v-34.791zm-0.24363 1.7542h-5.9933v15.982h7.3577q4.2392 0 6.773-2.144 2.5338-2.1927 2.5338-6.1882 0-4.3854-2.6312-5.9933-2.6312-1.6567-8.0398-1.6567zm42.392 33.036-4.8726-12.718h-14.862l-4.9701 12.718h-1.9978l13.692-34.888h1.8029l13.205 34.888zm-10.622-28.164q-0.24363-0.82835-0.68217-1.9978-0.43853-1.2182-0.87707-2.485-0.34108 1.1694-0.77962 2.3876-0.43854 1.1694-0.82835 2.0952l-5.2624 13.692h13.497zm17.639 28.164v-34.791h1.9003v33.036h16.957v1.7542zm32.988-26.263q4.1417 0 6.1882 2.1927 2.0952 2.144 2.0952 6.8704v17.2h-1.5105l-0.34109-4.7752h-0.0975q-1.1694 2.2414-3.3134 3.7519-2.0952 1.5105-5.9446 1.5105-3.8006 0-5.8472-1.8516-1.9978-1.8516-1.9978-5.1163 0-3.8494 3.1672-5.7984 3.2159-1.9978 9.1118-2.2901l4.8726-0.29235v-1.9491q0-4.1905-1.608-5.9446-1.608-1.8029-4.8239-1.8029-3.7519 0-7.65 1.949l-0.58472-1.6567q1.8516-0.87707 3.9468-1.4131 2.0952-0.58472 4.3366-0.58472zm1.7054 13.205q-4.9701 0.24363-7.7475 1.8029t-2.7774 4.7752q0 2.5338 1.608 3.9468 1.608 1.3643 4.4828 1.3643 4.5803 0 6.8217-2.5825 2.2414-2.6312 2.2901-6.9191v-2.5825zm16.762-13.01q0 1.2669-0.0487 2.9236-0.0487 1.6567-0.0974 2.7774h0.14618q0.87707-2.5825 3.2647-4.2392 2.4363-1.7054 5.9933-1.7054 5.0675 0 7.7475 3.4108 2.68 3.3621 2.68 9.9402 0 3.8494-1.2182 6.9191-1.1694 3.021-3.6545 4.7752-2.4363 1.7542-6.1882 1.7542-3.4108 0-5.5548-1.4618-2.0952-1.5105-3.021-3.7519h-0.14618l-0.29236 4.7264h-1.5105v-37.032h1.9003zm9.1118 1.4618q-4.7264 0-6.9191 3.0698-2.1927 3.0698-2.1927 8.6246v0.43853q0 5.5061 2.0465 8.3809 2.0465 2.8748 6.4319 2.8748 4.5803 0 6.9191-3.0698 2.3389-3.0698 2.3389-8.722 0-11.597-8.6246-11.597zm18.467-10.184-0.34108 12.571h-1.3156l-0.38981-12.571zm22.219 28.115q0 3.3621-2.5338 5.2624-2.485 1.9003-7.3089 1.9003-2.68 0-4.8239-0.48726-2.144-0.48727-3.557-1.1694v-1.9491q1.8516 0.9258 3.9956 1.4618 2.144 0.48727 4.4341 0.48727 4.1905 0 6.0421-1.4618 1.8516-1.4618 1.8516-3.9468 0-1.7054-0.97452-2.7774-0.9258-1.072-2.6312-1.8029-1.7054-0.73089-3.8981-1.4131-2.3389-0.77962-4.1905-1.5105-1.8516-0.77962-2.9236-2.0465-1.072-1.3156-1.072-3.6545 0-3.0698 2.4363-4.7752 2.485-1.7541 6.6268-1.7541 2.2901 0 4.2879 0.43853 1.9978 0.43854 3.6058 1.1207l-0.7309 1.6567q-1.4131-0.68217-3.3621-1.072-1.949-0.43853-3.8494-0.43853-3.3621 0-5.2624 1.2182-1.8516 1.1694-1.8516 3.557 0 1.8029 0.9258 2.7774 0.9258 0.97453 2.5338 1.608 1.608 0.58472 3.7032 1.3156 2.2414 0.73089 4.1417 1.5592 1.9491 0.77962 3.1672 2.144 1.2182 1.3643 1.2182 3.7519z" style="stroke-linecap:round;stroke-linejoin:round;stroke-width:.2284" aria-label="ZORALab's"/><path d="m521.04 424.6h-11.864v-105.82h-91.066v105.82h-11.864v-224.46h11.864v106.78h91.066v-106.78h11.864zm48.74 0v-224.46h114.79v11.864h-102.93v82.088h102.93v11.864h-102.93v106.78h102.93v11.864zm227.67-33.989q14.429-12.506 14.429-30.462t-10.582-28.538q-10.261-10.902-25.011-16.033-14.75-5.4511-29.821-10.902-14.75-5.4511-25.332-16.353-10.261-11.223-10.261-28.538 0-30.142 16.674-44.892 16.995-14.75 40.403-14.75 23.408 0 51.305 4.4892v11.864q-25.011-4.4892-46.816-4.4892t-35.913 12.185q-13.788 12.185-13.788 34.31 0 19.239 19.881 28.859 8.9783 4.4892 19.56 8.337 10.902 3.8479 21.805 8.6577 10.902 4.8098 19.56 11.544 8.9783 6.4131 14.429 18.277 5.7718 11.544 5.7718 27.256 0 15.391-7.3751 27.256-7.0544 11.864-17.636 18.598-10.582 6.7338-24.69 10.902-22.767 7.0544-51.305 7.0544h-8.0164v-11.864q57.077 0 82.729-22.766zm101.01 33.989h-11.864v-212.59h-51.305v-11.864h114.79v11.864h-51.625zm92.028 0h-11.864v-223.82h11.864zm161.61-207.78v207.78h-11.864v-105.82h-91.066v105.82h-11.864v-146.86q0-34.631 22.125-56.756 22.125-22.125 55.473-22.125 24.37 0 37.196 17.957zm-11.864 90.104v-85.615q-10.261-10.582-25.973-10.582-28.218 0-46.816 20.522-18.277 20.522-18.277 46.816v28.859z" style="stroke-linecap:round;stroke-linejoin:round;stroke-width:1.5031" aria-label="HESTIA"/></g></svg>
